<svg xmlns="http://www.w3.org/2000/svg" width="244" height="197" viewBox="0 0 244 197">
    <g fill="none" fill-rule="evenodd">
        <g>
            <g>
                <g transform="translate(-33 -501) translate(33 501)">
                    <path fill="#F4FAFF" d="M114 0c58.542 0 106 47.458 106 106 0 33.048-15.124 62.563-38.827 82.003H46.827C23.124 168.563 8 139.048 8 106 8 47.458 55.458 0 114 0z"/>
                    <rect width="198" height="16" x="15" y="181" fill="#BBD8F1" rx="8"/>
                    <rect width="47" height="16" y="44" fill="#ECF6FF" rx="7"/>
                    <rect width="35" height="12" x="30" y="18" fill="#ECF6FF" rx="6"/>
                    <rect width="47" height="16" x="197" y="111" fill="#ECF6FF" rx="7"/>
                    <rect width="198" height="16" x="15" y="181" fill="#F4FAFF" rx="7"/>
                    <g>
                        <path fill="#FFB001" d="M111.983 71.631L22.594 71.631 0.246 116.325 134.33 116.325z" transform="translate(47 37)"/>
                        <path fill="#FFA217" d="M0 116h125.6c4.418 0 8 3.582 8 8v20c0 4.418-3.582 8-8 8H4c-2.21 0-4-1.79-4-4v-32z" transform="translate(47 37)"/>
                        <path fill="#FFB001" d="M6.4 116h127.2v32c0 2.21-1.79 4-4 4H10.4c-2.21 0-4-1.79-4-4v-32z" transform="translate(47 37)"/>
                        <path fill="#D3191A" d="M101.634 134.483c0 3.513-2.846 6.36-6.36 6.36-2.08 0-3.927-.998-5.089-2.544-.797-1.063-1.272-2.386-1.272-3.816 0-1.43.475-2.754 1.272-3.817 1.162-1.546 3.008-2.544 5.089-2.544 3.514 0 6.36 2.847 6.36 6.36zm-55.973 0c0 1.43-.474 2.753-1.272 3.816-1.159 1.546-3.008 2.544-5.088 2.544-3.512 0-6.36-2.847-6.36-6.36 0-3.514 2.848-6.361 6.36-6.361 2.08 0 3.93.998 5.088 2.544.798 1.063 1.272 2.386 1.272 3.817z" transform="translate(47 37)"/>
                        <path fill="#EF2929" d="M88.913 134.483c0 1.43.475 2.753 1.273 3.816H44.389c.797-1.063 1.272-2.386 1.272-3.816 0-1.43-.474-2.754-1.272-3.817h45.797c-.798 1.063-1.273 2.386-1.273 3.817z" transform="translate(47 37)"/>
                        <path fill="#FF8901" d="M72.362 71.631L22.594 71.631 22.594 99.211 111.656 99.211 111.656 71.631 104.306 71.631" transform="translate(47 37)"/>
                        <path fill="#FFD699" d="M111.388 99.211L66.99 99.211 22.594 99.211 16.954 116.325 66.99 116.325 117.027 116.325z" transform="translate(47 37)"/>
                        <g stroke="#BBD8EF" stroke-linecap="round" stroke-linejoin="round" stroke-width="3.2">
                            <path d="M11.15 8.378L7.569.515M16.392 5.991L18.533.269M5.908 10.766L.186 8.625" transform="translate(47 37) translate(5.76 54.08)"/>
                        </g>
                        <path fill="#BBD8F1" fill-rule="nonzero" d="M42.294 92.419l-.078-.002c-1.183-.057-2.337-.205-3.428-.441-.864-.187-1.413-1.038-1.226-1.902.186-.863 1.038-1.412 1.901-1.225.92.198 1.898.323 2.905.371.883.042 1.564.792 1.522 1.675-.04.856-.748 1.524-1.596 1.524zm6.36-.52c-.75 0-1.42-.53-1.569-1.293-.17-.867.396-1.708 1.263-1.877.962-.189 1.963-.431 2.974-.722.85-.244 1.736.247 1.98 1.097.244.849-.247 1.735-1.097 1.98-1.1.315-2.19.58-3.242.785-.104.02-.207.03-.31.03zm-15.35-2.427c-.324 0-.65-.098-.933-.301-.96-.691-1.846-1.49-2.633-2.376-.587-.66-.527-1.672.133-2.26.66-.586 1.672-.526 2.26.134.63.71 1.34 1.35 2.109 1.904.717.516.88 1.515.364 2.233-.312.434-.802.666-1.3.666zm-5.015-7.82c-.797 0-1.487-.594-1.586-1.405-.14-1.13-.238-2.239-.295-3.297-.047-.883.63-1.636 1.513-1.683.876-.051 1.636.63 1.683 1.512.053.985.145 2.02.275 3.077.108.877-.516 1.676-1.393 1.783-.066.009-.132.013-.197.013zm-.038-9.569c-.078 0-.156-.006-.236-.017-.874-.129-1.478-.942-1.349-1.817.174-1.174.422-2.3.738-3.347.256-.846 1.15-1.325 1.995-1.069.846.256 1.324 1.149 1.069 1.995-.272.897-.486 1.869-.636 2.889-.117.795-.8 1.366-1.58 1.366zm61.582-3.45c-.045 0-.09-.001-.136-.005-1.03-.087-2.143-.231-3.308-.43-.87-.149-1.457-.975-1.308-1.846.15-.871.973-1.458 1.847-1.308 1.075.184 2.097.317 3.037.396.881.074 1.535.847 1.46 1.728-.07.835-.769 1.466-1.592 1.466zm6.355-.38c-.712 0-1.361-.478-1.548-1.2-.22-.855.293-1.728 1.149-1.949.93-.24 1.771-.59 2.498-1.04.75-.465 1.737-.234 2.202.518.466.751.234 1.737-.518 2.202-1 .62-2.138 1.097-3.38 1.418-.135.035-.27.051-.403.051zm-15.77-1.448c-.138 0-.279-.018-.42-.056-.975-.264-1.994-.555-3.116-.89-.847-.252-1.328-1.143-1.076-1.99s1.142-1.33 1.99-1.076c1.096.326 2.09.61 3.04.867.853.231 1.357 1.11 1.126 1.963-.194.713-.84 1.182-1.544 1.182zm-9.186-2.792c-.163 0-.328-.025-.491-.078l-3.046-.984c-.84-.271-1.303-1.173-1.032-2.014.272-.84 1.173-1.303 2.014-1.031l3.046.984c.84.271 1.303 1.173 1.032 2.014-.219.677-.847 1.11-1.523 1.11zm-39.322-.652c-.367 0-.737-.126-1.038-.384-.672-.574-.751-1.584-.177-2.255.771-.903 1.654-1.717 2.623-2.418.716-.518 1.717-.358 2.234.358.518.716.358 1.716-.358 2.234-.764.553-1.46 1.193-2.066 1.904-.316.37-.766.56-1.218.56zm71.18-1.218c-.202 0-.407-.038-.606-.12-.442-.18-.76-.537-.905-.955-.384-.134-.767-.283-1.145-.448-.81-.353-1.18-1.296-.827-2.106.353-.81 1.296-1.18 2.106-.827.19.083.381.16.573.234.083-.282.16-.56.233-.832.226-.854 1.1-1.365 1.956-1.138.854.226 1.363 1.101 1.137 1.956-.094.358-.197.723-.308 1.093.327.355.49.852.4 1.364-.132.747-.764 1.281-1.49 1.32-.3.293-.704.459-1.124.459zm-41.015-1.03c-.152 0-.307-.021-.46-.067-1.085-.325-2.08-.611-3.042-.876-.852-.234-1.353-1.115-1.118-1.967.234-.852 1.114-1.352 1.967-1.118.985.27 2.002.564 3.11.895.847.253 1.328 1.145 1.075 1.991-.208.694-.844 1.142-1.532 1.142zm48.288-.23c-.58 0-1.14-.318-1.425-.87-.404-.786-.094-1.75.692-2.154.76-.39 1.454-.928 2.06-1.597.593-.655 1.604-.706 2.26-.112.655.593.705 1.605.112 2.26-.866.955-1.865 1.728-2.969 2.295-.234.12-.484.177-.73.177zm-57.578-2.2c-.1 0-.201-.01-.303-.03-1.011-.194-2.033-.348-3.037-.457-.879-.096-1.513-.886-1.417-1.764.096-.879.886-1.512 1.763-1.418 1.09.12 2.199.286 3.294.497.868.166 1.436 1.005 1.27 1.873-.147.766-.818 1.298-1.57 1.298zm-12.717-.056c-.725 0-1.381-.495-1.556-1.23-.204-.86.328-1.723 1.188-1.927 1.065-.253 2.201-.437 3.377-.547.876-.085 1.66.563 1.743 1.443.082.88-.564 1.66-1.444 1.742-1.028.097-2.017.256-2.938.475-.124.03-.248.044-.37.044zm55.91-1.65c-.466 0-.928-.202-1.245-.592-.847-1.046-1.448-2.14-1.785-3.249l-.03-.097c-.248-.848.237-1.737 1.085-1.987.848-.248 1.737.237 1.986 1.085l.02.07c.217.711.624 1.44 1.21 2.164.557.686.451 1.694-.235 2.25-.297.24-.653.357-1.006.357zm19.759-3.691c-.135 0-.273-.018-.41-.054-.855-.226-1.364-1.102-1.138-1.956.238-.899.424-1.884.554-2.928.11-.877.913-1.497 1.786-1.39.877.11 1.5.909 1.39 1.786-.148 1.186-.362 2.314-.636 3.351-.19.717-.838 1.19-1.546 1.19zm-10.887-.512c-.837 0-1.54-.65-1.595-1.498-.064-.99-.258-1.838-.578-2.522-.373-.8-.027-1.753.774-2.126.8-.374 1.753-.028 2.127.773.488 1.047.78 2.282.87 3.67.057.882-.612 1.643-1.494 1.7l-.104.003zm-8.793-4.42c-.441 0-.88-.18-1.195-.535-.588-.66-.53-1.67.13-2.259 1.026-.915 2.272-1.53 3.603-1.78.87-.164 1.704.408 1.867 1.277.164.868-.408 1.705-1.277 1.867-.748.14-1.48.504-2.064 1.025-.305.272-.686.406-1.064.406zm20.586-4.416c-.699 0-1.097-.32-1.338-.745-.221-.26-.361-.593-.378-.96-.008-.177-.018-.355-.028-.535l-.003-.043c-.014-.25-.019-.414-.019-.514 0-1.105.83-1.7 1.61-1.7 1.438 0 1.615 1.414 1.682 1.946.03.237.08.67.08.91 0 1.027-.816 1.64-1.606 1.64z" transform="translate(47 37)"/>
                        <g>
                            <path fill="#FFD699" d="M35.676 10.08l-.57 3.984-1 7.011-1.31 9.165s0 4.32-4.32 4.32-4.32-4.32-4.32-4.32l-1.308-9.165-1.002-7.011-.57-3.984s0-7.2 7.2-7.2 7.2 7.2 7.2 7.2z" transform="translate(47 37) translate(87.04)"/>
                            <path fill="#FFEBCC" d="M35.676 10.08l-.474 3.984-.835 7.011-1.09 9.165s0 4.32-3.6 4.32-3.6-4.32-3.6-4.32l-1.091-9.165-.835-7.011-.475-3.984s0-7.2 6-7.2 6 7.2 6 7.2z" transform="translate(47 37) translate(87.04)"/>
                            <path fill="#D1D3D5" d="M22.848 21.075c-2.183 1.735-6.896 4.845-12.65 4.845-7.976 0-9.97-7.974-9.97-7.974s1.994-7.978 9.97-7.978c4.989 0 9.197 2.34 11.648 4.096l1.002 7.011zm33.875-3.13s-1.993 7.975-9.968 7.975c-5.753 0-10.467-3.11-12.65-4.845l1.002-7.011c2.451-1.757 6.66-4.096 11.648-4.096 7.974 0 9.968 7.978 9.968 7.978z" transform="translate(47 37) translate(87.04)"/>
                            <path fill="#F2F3F4" d="M22.56 19.627C20.399 21.192 15.731 24 10.034 24 2.135 24 .16 16.801.16 16.801S2.135 9.6 10.034 9.6c4.94 0 9.107 2.112 11.534 3.697l.992 6.33zm34.4-2.826S54.986 24 47.088 24c-5.698 0-10.367-2.808-12.528-4.373l.992-6.33C37.98 11.712 42.148 9.6 47.088 9.6c7.898 0 9.872 7.201 9.872 7.201z" transform="translate(47 37) translate(87.04)"/>
                            <path stroke="#4C4C4D" stroke-linecap="round" stroke-linejoin="round" stroke-width="3.2" d="M31.356 3.354L32.796 0M25.596 3.354L24.156 0M33.12 27.978L23.952 27.978M33.913 22.422L23.173 22.422" transform="translate(47 37) translate(87.04)"/>
                        </g>
                    </g>
                </g>
            </g>
        </g>
    </g>
</svg>
